<?xml version="1.0" encoding="utf-8"?>
<svg version="1.1" id="Layer_1" xmlns="http://www.w3.org/2000/svg" xmlns:xlink="http://www.w3.org/1999/xlink" x="0px" y="0px"
	 viewBox="0 0 32 32" style="enable-background:new 0 0 32 32;" xml:space="preserve">
<style type="text/css">
	.st0{fill:none;stroke:#000000;stroke-width:3;}
	.st1{fill:#FFFFFF;stroke:#000000;stroke-width:3;stroke-miterlimit:10;}
</style>
<g id="Icon=MUIPear">
<path id="Vector" d="M22.5385 20.2308C22.5385 23.9651 19.5036 27 15.7692 27C12.0349 27 9 23.9651 9 20.2308C9 16.8462 11.2564 16.8462 11.2564 13.4615C11.2564 11.8369 12.1026 10.3251 13.5128 9.51282C13.9641 9.25333 14.4379 9.0841 14.9231 8.99385V7.82051C14.9231 7.40308 14.8328 7.16615 14.6749 7.00821C14.5282 6.85026 14.2236 6.69231 13.5128 6.69231V5C14.5056 5 15.3179 5.25949 15.8708 5.81231C16.4236 6.36513 16.6154 7.12103 16.6154 7.82051V8.99385C17.1005 9.0841 17.5856 9.25333 18.0256 9.51282C19.4359 10.3251 20.2821 11.8369 20.2821 13.4615C20.2821 16.8462 22.5385 16.8462 22.5385 20.2308Z" fill="black"/>
</g>
</svg>
